<?xml version="1.0" standalone="no"?>
<!DOCTYPE svg PUBLIC "-//W3C//DTD SVG 20010904//EN">
<svg version="1.0" xmlns="http://www.w3.org/2000/svg"
 width="700.000000pt" height="700.000000pt" viewBox="0 0 700.000000 700.000000"
 preserveAspectRatio="xMidYMid meet">
<metadata>
Created by potrace 1.14, written by Peter Selinger 2001-2017
</metadata>
<g transform="translate(0.000000,700.000000) scale(0.100000,-0.100000)"
fill="#000000" stroke="none">
<path d="M1448 6492 l-48 -3 0 -2990 0 -2989 73 0 c39 0 326 -1 635 -1 l564 0
66 56 c89 76 100 84 152 125 24 19 52 42 61 50 9 8 25 22 35 30 135 108 171
137 180 145 6 6 30 27 55 47 l44 37 -1 2498 c-1 1374 -2 2501 -3 2504 0 3 -56
51 -122 105 -199 162 -299 244 -385 316 l-81 67 -589 3 c-324 2 -610 2 -636 0z
m1057 -570 c17 -15 72 -60 123 -101 79 -64 92 -79 93 -105 1 -39 1 -4449 0
-4457 -1 -3 -41 -38 -90 -77 -49 -40 -104 -86 -122 -102 l-34 -30 -265 0 -265
0 0 2450 0 2450 265 0 265 0 30 -28z"/>
<path d="M5195 6490 l-140 -5 0 -1678 c0 -1670 0 -1678 -20 -1682 -11 -2 -175
-40 -365 -84 -190 -45 -356 -82 -369 -83 l-24 -3 -1 1525 -1 1525 -270 0 -270
0 0 -2738 c0 -1507 3 -2743 6 -2748 4 -8 285 -13 490 -10 l46 1 0 936 c0 754
3 938 13 944 7 4 40 14 74 21 34 7 66 13 71 15 44 11 614 144 617 144 2 0 3
-345 2 -767 0 -423 2 -774 4 -780 3 -10 67 -13 273 -13 l269 0 0 2740 0 2740
-87 1 c-49 0 -108 1 -133 2 -25 1 -108 0 -185 -3z"/>
</g>
</svg>
